<svg id="Layer_1" xmlns="http://www.w3.org/2000/svg" viewBox="0 0 500 500">
<style>
    path { fill: #034199; }
    @media (prefers-color-scheme: dark) {
      path { fill: #ffffff; }
    }
  </style>
<path d="m385.96,77.77c-.08-.9-.19-1.73-.34-2.48-2.56.15-4.21-.6-4.96-2.25-.75-1.65-1.58-3.3-2.48-4.96-1.66,0-3.27-.19-4.85-.56-1.58-.37-3.19-.71-4.85-1.01-4.36,3.16-8.9,5.67-13.64,7.55-4.73,1.88-9.88,3.12-15.44,3.72,0,1.05-.34,1.8-1.01,2.25-.68.45-1.39,1.05-2.14,1.8-.3-.15-.56-.3-.79-.45-.22-.15-.49-.23-.79-.23-1.05,0-2.03.42-2.93,1.24-.9.83-1.8,1.46-2.7,1.92-.75-.6-1.73-.9-2.93-.9-1.35,0-2.7.3-4.06.9-1.35.6-2.7,1.28-4.06,2.03-1.35.75-2.74,1.43-4.17,2.03-1.43.6-2.82.9-4.17.9-1.05,0-1.88-.07-2.48-.23-.6.75-.94,1.66-1.01,2.7-.08,1.05-.56,1.8-1.46,2.25,0-.3-.08-.68-.23-1.13-.15-.45-.45-.68-.9-.68-.3,0-.45.08-.45.23-4.36,2.11-8.3,3.94-11.83,5.52-3.53,1.58-7.7,2.97-12.51,4.17.15.6.15,1.28,0,2.03-.15.75-.75,1.13-1.8,1.13-.3,0-.68-.04-1.13-.11-.45-.07-.83-.11-1.13-.11-1.8,0-3.49.3-5.07.9-1.58.6-3.04,1.24-4.4,1.92s-2.74,1.32-4.17,1.92c-1.43.6-2.89.9-4.4.9-1.05,0-2.03-.23-2.93-.68-1.8,1.35-3.72,2.44-5.75,3.27-2.03.83-4.1,1.62-6.2,2.37-2.11.75-4.13,1.54-6.09,2.37-1.96.83-3.76,1.99-5.41,3.49h-.9c-.6,0-1.09-.15-1.46-.45-.38-.3-.79-.45-1.24-.45h-.45c-.75,2.11-2.07,3.76-3.95,4.96-1.88,1.2-3.94,1.8-6.2,1.8-1.35,0-2.78-.37-4.28-1.13.3-2.4.3-4.69,0-6.87-.3-2.18-.6-4.47-.9-6.87.75-1.2,1.65-2.18,2.7-2.93,1.05-.75,1.73-1.95,2.03-3.61-1.05-2.25-2.14-4.51-3.27-6.76-1.13-2.25-2.44-4.28-3.95-6.09-1.5-1.8-3.27-3.27-5.3-4.4-2.03-1.13-4.47-1.69-7.33-1.69-1.96,0-3.46.23-4.51.68-1.05.45-1.92.98-2.59,1.58-.68.6-1.39,1.24-2.14,1.92-.75.68-1.8,1.32-3.16,1.92.3,1.66.56,3.35.79,5.07.22,1.73.34,3.49.34,5.3,0,1.66-.19,3.23-.56,4.73-.38,1.5-1.09,2.93-2.14,4.28.3.9.49,1.8.56,2.7.07.9.11,1.8.11,2.7,0,4.36-.6,8.72-1.8,13.07-1.2,4.36-1.95,8.72-2.25,13.07-2.56.3-4.88,1.05-6.99,2.25-2.11,1.2-4.17,2.59-6.2,4.17-2.03,1.58-4.02,3.12-5.97,4.62-1.96,1.5-4.13,2.7-6.54,3.61-1.2,2.86-1.8,5.71-1.8,8.56,0,4.81,2.18,8.94,6.54,12.4h.45c3.07,0,6.1-.53,9.03-1.43,2.78-.85,5.62-1.28,8.55-1.28h1.35c-1.2,5.56-2.11,11.2-2.7,16.9l-1.8,16.9c-.6,5.56-1.39,11.08-2.37,16.57-.98,5.49-2.44,10.86-4.4,16.12-3.91.45-7.59,1.99-11.04,4.62-3.46,2.63-5.18,6.12-5.18,10.48,0,1.2.23,2.63.68,4.28.45,1.66,1.05,3.01,1.8,4.06.9,1.2,2.52,2.14,4.85,2.82,2.33.68,4.24,1.62,5.75,2.82-1.35,6.76-2.41,13.49-3.16,20.17-.75,6.69-1.66,13.49-2.7,20.4-.15.6-.38,1.73-.68,3.38-.3,1.65-.64,3.38-1.01,5.18-.38,1.8-.68,3.42-.9,4.85-.22,1.43-.34,2.29-.34,2.59,0,1.2.26,2.06.79,2.59s.79,1.31.79,2.37c-2.25,1.5-3.38,3.76-3.38,6.76,0,.69.04,1.37.12,2.04-.11.09-.23.17-.33.27-.68.6-1.39,1.24-2.14,1.92-.75.68-2.03,10.48-2.03,12.28,0,1.66-.19,3.23-.56,4.73-.38,1.5-1.09,2.93-2.14,4.28.3.9.49,1.8.56,2.7.07.9.11,1.8.11,2.7,0,4.36-.6,8.72-1.8,13.07-1.2,4.36-1.95,8.72-2.25,13.07-2.56.3-4.88,1.05-6.99,2.25-2.11,1.2-4.17,2.59-6.2,4.17-2.03,1.58-4.02,3.12-5.97,4.62-1.96,1.5-4.13,2.7-6.54,3.61-1.2,2.86-1.8,5.71-1.8,8.56,0,4.81,2.18,8.94,6.54,12.4h.45c3.07,0,6.1-.53,9.03-1.43,2.78-.85,5.62-1.28,8.55-1.28h1.35l24.34-15.1s14.72-8.04,22.54-11.04c7.81-3,15.55-6.09,23.21-9.24,3.91-1.65,7.66-3.38,11.27-5.18,3.61-1.8,7.21-3.53,10.82-5.18.15-.15.45-.23.9-.23.6,0,1.05.15,1.35.45.3.3.75.45,1.35.45h.45c.75-1.05,1.73-1.88,2.93-2.48,1.2-.6,2.48-1.16,3.83-1.69,1.35-.52,2.67-1.09,3.95-1.69,1.27-.6,2.37-1.35,3.27-2.25,3.45-.45,6.68-1.35,9.69-2.7,3-1.35,5.97-2.78,8.9-4.28,2.93-1.5,5.9-2.93,8.9-4.28,3-1.35,6.16-2.18,9.47-2.48,1.2-1.65,2.78-2.89,4.73-3.72,1.95-.82,4.06-1.54,6.31-2.14,2.25-.6,4.43-1.27,6.54-2.03,2.1-.75,3.83-1.88,5.18-3.38,2.1-.15,4.13-.6,6.09-1.35,1.95-.75,3.83-1.58,5.63-2.48s3.64-1.73,5.52-2.48c1.88-.75,3.87-1.35,5.97-1.8,1.05.75,2.25,1.2,3.61,1.35,1.35.15,2.63.3,3.83.45-.15-.3-.23-.9-.23-1.8,0-.75.26-1.24.79-1.47.53-.23,1.16-.34,1.92-.34s1.76.08,3.04.23c1.27.15,2.14-.15,2.59-.9.15-1.2.26-2.48.34-3.83.07-1.35.11-2.7.11-4.06,0-.75-.04-1.58-.11-2.48-.08-.9-.19-1.73-.34-2.48-2.56.15-4.21-.6-4.96-2.25-.75-1.65-1.58-3.3-2.48-4.96-1.66,0-3.27-.19-4.85-.56-1.58-.37-3.19-.71-4.85-1.01-4.36,3.16-8.9,5.67-13.64,7.55-4.73,1.88-9.88,3.12-15.44,3.72,0,1.05-.34,1.8-1.01,2.25-.68.45-1.39,1.05-2.14,1.8-.3-.15-.56-.3-.79-.45-.22-.15-.49-.23-.79-.23-1.05,0-2.03.42-2.93,1.24-.9.83-1.8,1.46-2.7,1.92-.75-.6-1.73-.9-2.93-.9-1.35,0-2.7.3-4.06.9-1.35.6-2.7,1.28-4.06,2.03-1.35.75-2.74,1.43-4.17,2.03-1.43.6-2.82.9-4.17.9-1.05,0-1.88-.07-2.48-.23-.6.75-.94,1.66-1.01,2.7-.08,1.05-.56,1.8-1.46,2.25,0-.3-.08-.68-.23-1.13-.15-.45-.45-.68-.9-.68-.3,0-.45.08-.45.23-4.36,2.11-8.3,3.94-11.83,5.52-3.53,1.58-7.7,2.97-12.51,4.17.15.6.15,1.28,0,2.03-.15.75-.75,1.13-1.8,1.13-.3,0-.68-.04-1.13-.11-.45-.07-.83-.11-1.13-.11-1.8,0-3.49.3-5.07.9-1.58.6-3.04,1.24-4.4,1.92s-2.74,1.32-4.17,1.92c-1.43.6-2.89.9-4.4.9-1.05,0-2.03-.23-2.93-.68-1.8,1.35-3.72,2.44-5.75,3.27-2.03.83-4.1,1.62-6.2,2.37-2.11.75-4.13,1.54-6.09,2.37-1.96.83-3.76,1.99-5.41,3.49h-.9c-.6,0-1.09-.15-1.46-.45-.38-.3-.79-.45-1.24-.45h-.45c-.75,2.11-2.07,3.76-3.95,4.96-1.88,1.2-3.94,1.8-6.2,1.8-1.35,0-13.2,6.47-14.7,5.72.3-2.4,5.82-41.31,5.16-41.9,1.02-4.82,1.77-9.93,2.19-15.38.6-7.74,1.24-15.51,1.92-23.33.68-7.81,1.76-15.33,3.27-22.54,1.5-7.21,4.21-13.6,8.11-19.16,1.95-.45,3.75-1.2,5.41-2.25l4.96-3.16c1.65-1.05,3.3-1.99,4.96-2.82,1.65-.82,3.53-1.24,5.63-1.24.9,0,1.95.15,3.16.45,1.35-2.25,3.57-3.79,6.65-4.62,3.08-.82,5.82-1.24,8.23-1.24h1.35c.6,0,1.13.08,1.58.23.75-1.5,1.84-2.55,3.27-3.16,1.43-.6,2.93-1.09,4.51-1.46,1.58-.37,3.08-.86,4.51-1.47,1.43-.6,2.52-1.58,3.27-2.93.45.15,1.27.23,2.48.23,3,0,5.71-.68,8.11-2.03,2.4-1.35,4.88-2.03,7.44-2.03,1.05,0,2.03.23,2.93.68.45-1.05,1.13-1.84,2.03-2.37.9-.52,1.88-.94,2.93-1.24l3.38-1.13c1.2-.45,2.18-1.05,2.93-1.8,5.11-.45,10.1-1.54,14.99-3.27,4.88-1.73,9.69-3.57,14.42-5.52,4.73-1.95,9.54-3.68,14.43-5.18,4.88-1.5,9.95-2.25,15.21-2.25.15-1.05.52-1.88,1.13-2.48.6-.6,1.27-1.2,2.03-1.8.75-.6,1.43-1.24,2.03-1.92.6-.68,1.05-1.61,1.35-2.82-.9-1.5-1.65-3.08-2.25-4.73-.6-1.65-1.35-3.23-2.25-4.73-.9-1.5-1.99-2.78-3.27-3.83-1.28-1.05-2.97-1.65-5.07-1.8-1.35,1.2-2.89,2.07-4.62,2.59-1.73.53-3.49.94-5.3,1.24-1.8.3-3.61.68-5.41,1.13-1.8.45-3.46,1.2-4.96,2.25-.75,0-1.39-.03-1.92-.11-.53-.07-1.09-.11-1.69-.11-1.21,0-2.33.19-3.38.56-1.05.38-1.96,1.09-2.7,2.14-3.01-.3-6.24.15-9.69,1.35-3.46,1.2-6.46,2.56-9.02,4.06-.9-.45-2.03-.68-3.38-.68-1.8,0-3.61.53-5.41,1.58-1.8,1.05-3.46,2.18-4.96,3.38-4.96.75-9.8,1.88-14.54,3.38-4.73,1.5-9.35,3.23-13.86,5.18-1.66.75-3.38,1.54-5.18,2.37-1.8.83-3.53,1.46-5.18,1.92-2.11.75-4.25,1.28-6.42,1.58-2.18.3-4.32.83-6.42,1.58-4.21,1.2-8.38,2.56-12.51,4.06-4.13,1.5-8.38,2.86-12.74,4.06,0-1.05-.04-2.06-.11-3.04-.08-.98-.11-2.06-.11-3.27,0-3.16.23-6.46.68-9.92.45-3.45,1.43-6.61,2.93-9.47v-10.59c2.7-5.71,4.58-11.68,5.63-17.92,1.05-6.23,2.4-12.36,4.06-18.37,7.21-4.36,14.72-8.04,22.54-11.04,7.81-3,15.55-6.09,23.21-9.24,3.91-1.65,7.66-3.38,11.27-5.18,3.61-1.8,7.21-3.53,10.82-5.18.15-.15.45-.23.9-.23.6,0,1.05.15,1.35.45.3.3.75.45,1.35.45h.45c.75-1.05,1.73-1.88,2.93-2.48,1.2-.6,2.48-1.16,3.83-1.69,1.35-.52,2.67-1.09,3.95-1.69,1.27-.6,2.37-1.35,3.27-2.25,3.45-.45,6.68-1.35,9.69-2.7,3-1.35,5.97-2.78,8.9-4.28,2.93-1.5,5.9-2.93,8.9-4.28,3-1.35,6.16-2.18,9.47-2.48,1.2-1.65,2.78-2.89,4.73-3.72,1.95-.82,4.06-1.54,6.31-2.14,2.25-.6,4.43-1.27,6.54-2.03,2.1-.75,3.83-1.88,5.18-3.38,2.1-.15,4.13-.6,6.09-1.35,1.95-.75,3.83-1.58,5.63-2.48s3.64-1.73,5.52-2.48c1.88-.75,3.87-1.35,5.97-1.8,1.05.75,2.25,1.2,3.61,1.35,1.35.15,2.63.3,3.83.45-.15-.3-.23-.9-.23-1.8,0-.75.26-1.24.79-1.47.53-.23,1.16-.34,1.92-.34s1.76.08,3.04.23c1.27.15,2.14-.15,2.59-.9.15-1.2.26-2.48.34-3.83.07-1.35.11-2.7.11-4.06,0-.75-.04-1.58-.11-2.48Z"/>
</svg>